<svg id="Layer_1" data-name="Layer 1" xmlns="http://www.w3.org/2000/svg" viewBox="0 0 476 126"><defs><style>.cls-1{fill:#fff;}</style></defs><path class="cls-1" d="M50.91,84.18a9.57,9.57,0,0,1-7.61,3.57,10.76,10.76,0,0,1-5.25-1.36,24.94,24.94,0,0,1-5.57-4.58,17,17,0,0,1-8.14-2.24,15.33,15.33,0,0,1-5.68-5.68,16.61,16.61,0,0,1,.07-16.15,15.26,15.26,0,0,1,5.9-5.7A17.26,17.26,0,0,1,33.06,50,17.12,17.12,0,0,1,41.45,52a15.2,15.2,0,0,1,5.88,5.7,15.79,15.79,0,0,1,2.15,8.16,16,16,0,0,1-1.64,7.23,15.11,15.11,0,0,1-4.56,5.48,15.88,15.88,0,0,1-6.73,2.9c2.3,2.42,4.56,3.63,6.8,3.63a7.58,7.58,0,0,0,5.95-2.87ZM21.59,72.5a12.45,12.45,0,0,0,4.74,4.65,13.41,13.41,0,0,0,6.73,1.7,13.28,13.28,0,0,0,6.71-1.7,12.35,12.35,0,0,0,4.7-4.65,13.74,13.74,0,0,0,0-13.24,12.49,12.49,0,0,0-4.7-4.65,13.39,13.39,0,0,0-6.71-1.7,13.52,13.52,0,0,0-6.73,1.7,12.6,12.6,0,0,0-4.74,4.65,13.6,13.6,0,0,0,0,13.24Z"/><path class="cls-1" d="M60,78.32q-3.41-3.5-3.4-10.16V50.23h3.31V68q0,5.46,2.46,8.14t7.11,2.68q4.69,0,7.16-2.68T79.13,68V50.23h3.22V68.16q0,6.68-3.38,10.16t-9.46,3.49Q63.43,81.81,60,78.32Z"/><path class="cls-1" d="M92.32,50.23h3.31V81.54H92.32Z"/><path class="cls-1" d="M132,50.23V81.54h-2.73L109.14,56.13V81.54h-3.31V50.23h2.73l20.17,25.4V50.23Z"/><path class="cls-1" d="M148.27,53.09h-11V50.23h25.31v2.86h-11V81.54h-3.31Z"/><path class="cls-1" d="M185.93,73.17H168.49l-3.76,8.37h-3.44L175.6,50.23h3.26l14.31,31.31h-3.49Zm-1.21-2.68-7.51-16.82-7.52,16.82Z"/><path class="cls-1" d="M210.08,50.23h12.74a18.59,18.59,0,0,1,8.77,2,14.56,14.56,0,0,1,5.9,5.55,16.66,16.66,0,0,1,0,16.23,14.56,14.56,0,0,1-5.9,5.55,18.71,18.71,0,0,1-8.77,2H210.08Zm12.57,28.44a15.17,15.17,0,0,0,7.2-1.63,11.89,11.89,0,0,0,4.78-4.51,13.84,13.84,0,0,0,0-13.29,11.82,11.82,0,0,0-4.78-4.51,15.18,15.18,0,0,0-7.2-1.64h-9.26V78.67Z"/><path class="cls-1" d="M252.27,79.73a15.21,15.21,0,0,1-5.9-5.71,16.69,16.69,0,0,1,0-16.28,15.26,15.26,0,0,1,5.9-5.7A17.28,17.28,0,0,1,260.71,50,17.09,17.09,0,0,1,269.09,52a15.2,15.2,0,0,1,5.88,5.7,16.58,16.58,0,0,1,0,16.33,15.2,15.2,0,0,1-5.88,5.7,17.09,17.09,0,0,1-8.38,2.06A17.28,17.28,0,0,1,252.27,79.73Zm15.14-2.55a12.14,12.14,0,0,0,4.7-4.65,13.84,13.84,0,0,0,0-13.29,12.14,12.14,0,0,0-4.7-4.65,13.44,13.44,0,0,0-6.7-1.68A13.65,13.65,0,0,0,254,54.59a12.31,12.31,0,0,0-4.74,4.65,13.7,13.7,0,0,0,0,13.29A12.31,12.31,0,0,0,254,77.18a13.75,13.75,0,0,0,6.74,1.67A13.54,13.54,0,0,0,267.41,77.18Z"/><path class="cls-1" d="M308.66,82.72h-.92c0,.09,0,.25,0,.49s-.06.52-.1.83-.08.6-.1.89,0,.49,0,.62a1.59,1.59,0,0,0-.13.43c-.05.2-.09.4-.14.62s-.08.46-.13.73h-.33c0-.22-.08-.42-.13-.6a3.52,3.52,0,0,0-.16-.49c-.07-.15-.12-.27-.17-.36a6.76,6.76,0,0,0-.06-.69c-.05-.33-.08-.68-.1-1s-.06-.74-.1-1.09-.07-.59-.07-.72L305.7,82l-.95-.46a3.44,3.44,0,0,0-.83-.33,5.93,5.93,0,0,1-1.15-.46c-.55-.27-.89-.44-1-.53a2.88,2.88,0,0,0-.36-.26l-.62-.43c-.22-.15-.44-.3-.66-.43a2.41,2.41,0,0,1-.46-.33c-.13-.08-.4-.27-.79-.56a2.82,2.82,0,0,1-.66-.55l-.49-.5-.76-.72c-.26-.24-.52-.48-.76-.73a3.81,3.81,0,0,0-.56-.49,9.54,9.54,0,0,1-.59-.85,4.24,4.24,0,0,0-.72-.93,5.63,5.63,0,0,1-.46-.55,1.52,1.52,0,0,1-.33-.56,5.44,5.44,0,0,1-.36-.73c-.16-.35-.33-.71-.53-1.08s-.38-.73-.56-1.06-.28-.56-.33-.69a1.24,1.24,0,0,1-.16-.46,1.15,1.15,0,0,0-.23-.52,3,3,0,0,0,0-.43q0-.3-.09-.63c-.05-.22-.09-.46-.14-.72v-3a4.59,4.59,0,0,1,.14-.69,5.55,5.55,0,0,0,.13-.69c.09-.13.27-.47.56-1s.49-.93.62-1.15a1.26,1.26,0,0,1,.3-.53,1.2,1.2,0,0,0,.29-.53l1.06-1a11.62,11.62,0,0,1,1.12-1l.55-.33c.29-.18.47-.29.56-.33a2.41,2.41,0,0,1,.46-.33q.33-.2.66-.36l.59-.3a1.61,1.61,0,0,1,.33-.13l.83-.23a3.44,3.44,0,0,1,.69-.16h3.55a5.77,5.77,0,0,1,.66.16l.79.23a2.58,2.58,0,0,0,.46.17l.66.19c.21.07.42.12.62.17l.36.06a8.24,8.24,0,0,0,.73.4c.35.17.59.31.72.39a6.89,6.89,0,0,0,1.05.76,6.61,6.61,0,0,1,1.06.76l.88.72,1.29,1,.26.27a10.1,10.1,0,0,1,.69.82,2,2,0,0,1,.43.69.71.71,0,0,0,.1.33,2.65,2.65,0,0,0,.23.39,2.56,2.56,0,0,0,.33.53v1.18a2.35,2.35,0,0,1-.3.69c-.2.38-.32.61-.36.7a2.49,2.49,0,0,1-.33.39l-.56.56c-.2.2-.38.37-.56.53l-.33.29a2.47,2.47,0,0,1-.66.36,5.46,5.46,0,0,0-.72.37h-.72a2.11,2.11,0,0,1-.66-.14.88.88,0,0,1-.4-.19,1.07,1.07,0,0,1-.49-.33,1.09,1.09,0,0,1-.23-.33,1.73,1.73,0,0,1-.13-.76,1.65,1.65,0,0,1,.13-.75,2.42,2.42,0,0,1-.43-.37l-.62-.65a5.48,5.48,0,0,0-.66-.63c-.22-.17-.4-.31-.53-.39a11.05,11.05,0,0,0-.92-.7l-1.18-.82c-.13-.08-.38-.22-.73-.39a7.66,7.66,0,0,1-.72-.4h-.33a8.14,8.14,0,0,1-.13,1.22,8.24,8.24,0,0,0-.13,1.09.53.53,0,0,0-.2.13.19.19,0,0,1-.13.06.06.06,0,0,0-.07.07l-.19.13c-.09,0-.14,0-.14-.07v-.06c-.08,0-.16-.11-.23-.33a1,1,0,0,0-.23-.46s0-.19-.06-.43a5.82,5.82,0,0,1-.1-.76,7,7,0,0,0-.1-.72,3.44,3.44,0,0,1-.07-.46c-.13,0-.47-.12-1-.23a6.83,6.83,0,0,0-1.16-.16h-.26a3.44,3.44,0,0,0-.69.16l-.82.23v3.16a2.63,2.63,0,0,0,.16.76c.11.32.19.58.23.75l1.78,3.55a1.48,1.48,0,0,1,.39.47,4.24,4.24,0,0,0,.4.52,11.67,11.67,0,0,0,.89,1l1.31,1.31,1.28,1.28.79.79a.91.91,0,0,1,.33.2l.6.46c.21.18.43.34.65.5a5,5,0,0,0,.46.29l1.06.53a6.28,6.28,0,0,0,1.05.46,1.91,1.91,0,0,1,.62.16,2.36,2.36,0,0,0,.56.17h.6v-.33a1.2,1.2,0,0,0-.17-.33.87.87,0,0,1-.16-.33V73.71a1.7,1.7,0,0,1,.16-.53,1.83,1.83,0,0,0,.17-.53l.39-.36c.22-.19.44-.4.66-.62l.66-.66a4.15,4.15,0,0,1,.52-.46l.36-.17a1,1,0,0,0,.37-.23h1.38s.1.06.16.17a.63.63,0,0,0,.23.23l.27.53.42.85c.16.31.3.6.43.89a5.81,5.81,0,0,1,.26.62,2.31,2.31,0,0,1,.24.46,2.17,2.17,0,0,1,.16.53V77a3.57,3.57,0,0,1-.16.46c-.12.26-.19.44-.24.52a.41.41,0,0,1-.06.23,1.71,1.71,0,0,0-.13.23,3.26,3.26,0,0,1-.13.33,2.67,2.67,0,0,0-.53.66c-.26.4-.44.66-.53.79a.3.3,0,0,0-.23.17c-.06.11-.12.16-.16.16a3.12,3.12,0,0,1-.69.59,2.22,2.22,0,0,1-.69.4,1.39,1.39,0,0,1-.37.23,1.06,1.06,0,0,0-.36.23,3.09,3.09,0,0,0-.85.29c-.44.2-.75.34-.92.43,0,.26,0,.75,0,1.45s0,1.45-.1,2.24-.09,1.53-.16,2.23-.12,1.19-.16,1.45c0,.09,0,.32-.1.69a3.71,3.71,0,0,1-.23.82l-.27.27-.59-.66Z"/><path class="cls-1" d="M327.28,81.08a3.86,3.86,0,0,1-1-.3,4,4,0,0,0-1.05-.3l-.5-.26-.82-.43-.89-.42a2.52,2.52,0,0,1-.56-.33l-.62-.4a3,3,0,0,1-.56-.39,5.38,5.38,0,0,1-.63-.59l-.92-1-.95-1-.66-.69s-.15-.12-.33-.36a2.26,2.26,0,0,1-.33-.63,5.23,5.23,0,0,1-.33-.59c-.13-.26-.27-.54-.42-.82s-.3-.56-.43-.83a5.23,5.23,0,0,0-.33-.59,2.47,2.47,0,0,0-.13-.52,2.46,2.46,0,0,1-.13-.47V65.09a2.35,2.35,0,0,1,.06-.33c.05-.18.1-.37.17-.59s.13-.44.19-.66a1.29,1.29,0,0,1,.23-.46.92.92,0,0,1,.17-.4.81.81,0,0,0,.16-.39c.05-.09.14-.25.3-.49s.32-.49.49-.73l.66-.89.36-.36c.2-.2.41-.41.63-.66l.65-.69.47-.46c.13-.08.37-.26.72-.52s.59-.44.72-.53.33-.21.59-.36.55-.31.86-.46l.86-.43a4.48,4.48,0,0,1,.59-.26,4.26,4.26,0,0,0,.72-.13,3.59,3.59,0,0,1,.73-.14h4.27a3.55,3.55,0,0,1,.63.14,3.65,3.65,0,0,0,.75.13.83.83,0,0,1,.33.19,1.23,1.23,0,0,1,.33.33,1.88,1.88,0,0,1,.69.46c.29.27.43.44.43.53a1.71,1.71,0,0,0,.07.33,4.37,4.37,0,0,1,.09.56c0,.2.06.38.1.56a1.14,1.14,0,0,0,.13.33l.3.49c.15.24.33.5.53.79s.38.55.56.79a3.38,3.38,0,0,0,.39.49,2.94,2.94,0,0,1,.53.79c.26.48.44.81.52,1s.42.8.73,1.48.5,1.11.59,1.28a7.06,7.06,0,0,1,.46,1,4.29,4.29,0,0,1,.33,1c0,.26.12.62.23,1.05a6.5,6.5,0,0,1,.16.73v2.56a2.71,2.71,0,0,1-.16.63,5.33,5.33,0,0,0-.23.89,3.57,3.57,0,0,1-.16.46,1.9,1.9,0,0,0-.17.52.87.87,0,0,1-.16.4,1.76,1.76,0,0,1-.3.39,1.9,1.9,0,0,1-.23.46,2.55,2.55,0,0,1-.36.53,3.47,3.47,0,0,0-.66.72l-.53.73-.33.33a2.39,2.39,0,0,1-.65.52l-.79.53a6.81,6.81,0,0,1-.53.43,1.6,1.6,0,0,1-.46.29,3.05,3.05,0,0,1-.76.4c-.41.17-.62.31-.62.39-.18,0-.34.27-.49.66a2.83,2.83,0,0,0-.24.79h-.46a1.58,1.58,0,0,0-.29-.59,1.68,1.68,0,0,1-.3-.59h-.39a1.15,1.15,0,0,1-.46.23c-.22.06-.33.12-.33.16l-.59,6.45-.14.06h-.19c-.05,0-.07,0-.07-.06a2,2,0,0,0-.16-.56,2.23,2.23,0,0,1-.17-.56c0-.22-.1-.59-.16-1.12s-.12-1.09-.17-1.71-.07-1.19-.1-1.74S327.28,81.3,327.28,81.08ZM321,65.48a4.59,4.59,0,0,0,.14.69,6.35,6.35,0,0,1,.13.69,2.18,2.18,0,0,1,.33.56c.13.29.27.59.43.89l.42.86a1.13,1.13,0,0,0,.33.46,2.48,2.48,0,0,0,.46.75,4.93,4.93,0,0,1,.53.76,6.18,6.18,0,0,1,.72.69c.35.38.59.63.73.76a4.36,4.36,0,0,1,.75.56,4.5,4.5,0,0,0,.76.56,1.67,1.67,0,0,1,.43.19c.24.14.51.28.82.43s.61.3.92.43a2.1,2.1,0,0,0,.66.2,2.49,2.49,0,0,0,.52.33,2,2,0,0,0,.47.19h.65c.31,0,.63,0,1,0l.92,0h.62q0-.19,0-.69c0-.33,0-.68-.07-1s-.05-.72-.09-1a4.65,4.65,0,0,1-.07-.6,1.2,1.2,0,0,0-.1-.32c-.06-.18-.13-.38-.2-.6a3.27,3.27,0,0,0-.26-.65l-.23-.47c0-.08-.12-.26-.23-.52l-.36-.86c-.13-.3-.26-.6-.4-.89a4.56,4.56,0,0,0-.33-.62c-.08-.13-.26-.44-.52-.92a5.14,5.14,0,0,0-.53-.86c-.09-.13-.27-.38-.56-.75a3,3,0,0,0-.62-.69c0-.09-.1-.21-.3-.37s-.29-.27-.29-.36a5.66,5.66,0,0,0-.23,1.38c-.07.71-.13,1.17-.17,1.39a3.23,3.23,0,0,1-.16.82,3.82,3.82,0,0,0-.17.69h-.46a1.78,1.78,0,0,0-.16-.53,2.3,2.3,0,0,1-.17-.46c0-.13,0-.39-.06-.79s-.08-.81-.1-1.25-.05-.85-.07-1.25,0-.66,0-.79-.17-.19-.23-.46a2.55,2.55,0,0,0-.17-.52l-.32-.27-.2-.2-.13.14a.22.22,0,0,1-.14.06,1.74,1.74,0,0,1-.46.33.89.89,0,0,1-.23.1.44.44,0,0,0-.16.1c-.09,0-.13.09-.13.13a1,1,0,0,0-.4.16.85.85,0,0,1-.39.17h-1l-.33-.33c-.09,0-.16-.16-.23-.36s-.14-.3-.23-.3-.21.1-.36.3a1.17,1.17,0,0,1-.36.36,3.71,3.71,0,0,0-.13.46,4,4,0,0,0-.14.66v2.43Z"/><path class="cls-1" d="M341.69,83a6.92,6.92,0,0,1-.46-.52,2,2,0,0,1-.33-.46,2.47,2.47,0,0,0-.07-.4,7.07,7.07,0,0,1-.09-.72c0-.26-.06-.54-.1-.82a3.88,3.88,0,0,0-.14-.63q0-.33-.09-1.77c-.07-1-.13-2-.2-3.13s-.13-2.16-.2-3.13-.1-1.57-.1-1.84a2.83,2.83,0,0,1-.13-.59c0-.31-.08-.66-.1-1s-.05-.77-.1-1.12a5.57,5.57,0,0,0-.13-.79,11,11,0,0,0-.16-1.45,11.4,11.4,0,0,1-.17-1.45,7.4,7.4,0,0,0-.13-1c-.09-.5-.16-1-.23-1.58s-.13-1.06-.2-1.54-.09-.79-.09-.93V54.56a2.2,2.2,0,0,1,.29-.69,3.88,3.88,0,0,0,.36-.82,3.86,3.86,0,0,0,.56-.46l.56-.53a1.61,1.61,0,0,0,.46-.33c.27-.22.44-.37.53-.46a2.46,2.46,0,0,0,.46-.13A2.85,2.85,0,0,0,342,51h1l.13.13a.42.42,0,0,0,.33.13,2.26,2.26,0,0,0,.13.46.89.89,0,0,0,.19.33v1.51a12.61,12.61,0,0,0,.17,1.32l.36,2.3q.19,1.26.33,2.37c.09.75.13,1.21.13,1.38a2,2,0,0,1,.13.56,8.35,8.35,0,0,1,.1.89c0,.31.06.6.1.89a4.22,4.22,0,0,0,.13.62l.33.33c.09-.22.26-.6.53-1.15l.85-1.77.86-1.78c.26-.55.44-.93.52-1.15a1.66,1.66,0,0,0,.4-.46,4,4,0,0,1,.39-.53,5.31,5.31,0,0,0,.73-.69,6.18,6.18,0,0,1,.72-.69,5.52,5.52,0,0,0,.53-.36,1.63,1.63,0,0,1,.46-.3,1.45,1.45,0,0,1,.56-.26,1.51,1.51,0,0,0,.56-.27h.39a1.87,1.87,0,0,0,.36.27c.16.09.23.17.23.26s.17.08.23.23a3.45,3.45,0,0,0,.23.43,2.23,2.23,0,0,0,.17.56,2,2,0,0,1,.16.56s.05.26.14.66.17.59.26.59a6.34,6.34,0,0,0,.23.82q.17.49.3,1a7.64,7.64,0,0,0,.29.92c.11.28.19.47.23.56a1.9,1.9,0,0,0,.3.72c.19.35.34.59.42.72a1.2,1.2,0,0,1,.14-.32,1.61,1.61,0,0,0,.13-.33,1.55,1.55,0,0,1,.1-.37,5.5,5.5,0,0,1,.23-.59c.08-.19.17-.38.26-.56s.15-.26.2-.26a6.2,6.2,0,0,0,.39-.72c.18-.35.35-.73.53-1.12s.34-.76.49-1.09a3.12,3.12,0,0,1,.36-.62c.09-.18.21-.41.37-.69s.27-.43.36-.43l.29-.33c.16-.18.33-.36.53-.56l.56-.56a2.49,2.49,0,0,1,.39-.33,3.45,3.45,0,0,0,.53-.36,1.26,1.26,0,0,1,.53-.3,1.52,1.52,0,0,1,.52-.26c.27-.09.42-.17.46-.26h.79a1.69,1.69,0,0,0,.37.26,2.42,2.42,0,0,1,.36.26,2.21,2.21,0,0,1,.36.33,1.09,1.09,0,0,1,.23.33,5.59,5.59,0,0,0,.3.53c.15.26.31.54.49.82a7.49,7.49,0,0,1,.46.89,2.1,2.1,0,0,1,.2.66s.1.09.16.26.14.37.23.59a5.75,5.75,0,0,1,.23.66c.07.22.12.4.17.53a3.44,3.44,0,0,0,.16.69,3.36,3.36,0,0,1,.17.82c0,.26.17.88.39,1.84s.44,2,.66,3.09.44,2.13.66,3.1.37,1.58.46,1.84a4.64,4.64,0,0,0,.33,1.25c.21.61.37,1,.46,1.32a3.41,3.41,0,0,0,.29.92,4,4,0,0,1,.3.85l.16.17a.33.33,0,0,0,.23.09c0,.09.16.17.46.24a3.21,3.21,0,0,1,.6.16c.08.09.23.22.42.39s.3.31.3.4v1q-.13.26-.36.75a3.32,3.32,0,0,1-.36.63,3.09,3.09,0,0,1-.37.46c-.19.22-.4.44-.62.66l-.66.65-.39.4a.87.87,0,0,0-.4.16.9.9,0,0,1-.39.17,1.31,1.31,0,0,1-.56.23c-.29.06-.43.14-.43.23h-.53a.52.52,0,0,0-.33-.23.56.56,0,0,1-.32-.23l-.56-.53a5.48,5.48,0,0,0-.56-.46l-.33-.56a5.41,5.41,0,0,1-.33-.56,6.34,6.34,0,0,1-.33-.85q-.19-.6-.39-1.29c-.14-.46-.27-.88-.4-1.28l-.26-.79c-.09-.26-.24-.9-.46-1.91s-.44-2.07-.66-3.19-.44-2.16-.66-3.12-.35-1.56-.39-1.78a3.59,3.59,0,0,0-.17-.76,3.44,3.44,0,0,1-.16-.69,9,9,0,0,1-.4-1,9.59,9.59,0,0,0-.39-1l-.27.33a4.67,4.67,0,0,0-.16.49c-.07.24-.13.52-.2.82s-.13.61-.19.89-.13.49-.17.63a5.68,5.68,0,0,0-.23,1.28,4.56,4.56,0,0,1-.23,1.22v3.22a5,5,0,0,0,.16.79,7.8,7.8,0,0,0,.3,1,2.23,2.23,0,0,0,.17.56,2.39,2.39,0,0,1,.16.56v1.77a1.13,1.13,0,0,1-.1.33.52.52,0,0,1-.23.33l-.43.43-.62.62q-.33.33-.66.63c-.22.19-.4.34-.53.43s-.11.24-.32.32l-.27.14h-1.78l-6.51-12.9-.33-.33c-.09.22-.23.64-.43,1.25s-.4,1.27-.62,2-.44,1.37-.66,2-.37,1-.46,1.25a3,3,0,0,1-.1.56c-.06.28-.13.57-.19.85s-.14.56-.2.83a2.5,2.5,0,0,0-.1.52,2.09,2.09,0,0,0-.13.59,9.79,9.79,0,0,0-.1,1c0,.38-.06.73-.1,1.06a1.53,1.53,0,0,1-.13.56,2.67,2.67,0,0,1-.17.75,2.71,2.71,0,0,0-.16.63,1.45,1.45,0,0,1-.16.46c-.11.22-.24.44-.37.66a5.69,5.69,0,0,0-.33.65,2.54,2.54,0,0,0-.13.4,2.29,2.29,0,0,0-.13.56c0,.28-.08.58-.1.89a8.16,8.16,0,0,1-.1.88,1.8,1.8,0,0,1-.13.56,2,2,0,0,1-.16.46,1.93,1.93,0,0,0-.17.53,2.93,2.93,0,0,1-.16-.53c-.07-.26-.14-.41-.23-.46a6.35,6.35,0,0,0-.13-.69,4.59,4.59,0,0,1-.14-.69l-.19-.13-.13.13c-.31,0-.46.09-.46.27s0,.6-.1,1.15-.15,1.13-.23,1.74-.17,1.18-.23,1.71a9.35,9.35,0,0,1-.17,1,5.24,5.24,0,0,1-.1.79,2,2,0,0,1-.16.66l-.33-1Z"/><path class="cls-1" d="M388.08,83.51a10.22,10.22,0,0,1-.17,1.22,8.87,8.87,0,0,1-.29,1.28l-.33.59-.6-.33V82.06a2.74,2.74,0,0,0-.56-.16c-.28-.07-.58-.14-.88-.23s-.61-.17-.89-.23-.49-.12-.63-.17a1.58,1.58,0,0,1-.42-.09l-.63-.24-.66-.23a3.19,3.19,0,0,1-.46-.16,2.31,2.31,0,0,1-.62-.23l-.76-.36a1.51,1.51,0,0,0-.46-.4,3.81,3.81,0,0,1-.53-.39,5.37,5.37,0,0,0-.79-.59,3.41,3.41,0,0,0-.65-.4,9,9,0,0,0-.7-.79,2.4,2.4,0,0,0-.82-.66,1.9,1.9,0,0,0-.43-.65,8.06,8.06,0,0,1-.62-.86,2.55,2.55,0,0,1-.36-.53,4.1,4.1,0,0,0-.36-.52c0-.09-.13-.23-.23-.43a5,5,0,0,1-.3-.66,5,5,0,0,0-.3-.66,2.29,2.29,0,0,0-.23-.36,4.86,4.86,0,0,1-.36-1c-.15-.54-.27-.93-.36-1.15a8.8,8.8,0,0,0-.13-1,8.8,8.8,0,0,1-.13-1V64.3a7.57,7.57,0,0,1,.13-.86,6.57,6.57,0,0,0,.13-.92c.09-.26.21-.67.36-1.21a8.34,8.34,0,0,1,.36-1.09c.05,0,.12-.09.23-.26a4.2,4.2,0,0,0,.3-.6c.09-.21.19-.43.3-.65s.18-.4.23-.53a3.72,3.72,0,0,0,.36-.53,1.31,1.31,0,0,1,.36-.46l.62-.82a2,2,0,0,0,.43-.69l.56-.53a7.26,7.26,0,0,1,.63-.52c0-.09.17-.27.52-.53a2.69,2.69,0,0,1,.79-.46l1.06-.79c.21-.09.6-.26,1.15-.53s.89-.41,1-.46a1.91,1.91,0,0,0,.56-.19,2.52,2.52,0,0,0,.56-.33,3.77,3.77,0,0,0,.82-.13,3.52,3.52,0,0,1,.62-.14h3.88l.89.14a9.9,9.9,0,0,0,1.29.13,4,4,0,0,0,.92.33,5.31,5.31,0,0,0,.85.19,4.61,4.61,0,0,1,1,.3l1,.36.53.26c.26.14.55.27.85.4a8.14,8.14,0,0,1,.89.43,4.65,4.65,0,0,0,.63.29l.59.37q.39.23.39.36l.79.72a2.49,2.49,0,0,1,.66.72,4.27,4.27,0,0,1,.46.7,2.24,2.24,0,0,1,.33.69v2.17c0,.13-.09.28-.13.46a2,2,0,0,1-.17.36c-.06.11-.12.21-.16.3a1.2,1.2,0,0,1-.1.32.52.52,0,0,1-.23.33,7.42,7.42,0,0,1-.46.69,6,6,0,0,1-.53.7c-.08.08-.26.28-.52.59s-.44.5-.53.59a7.16,7.16,0,0,0-.82.53c-.37.26-.6.41-.69.46s-.09.12-.26.23-.38.22-.6.33l-.65.33a5.68,5.68,0,0,1-.53.23,2.3,2.3,0,0,0-.56.13,2.31,2.31,0,0,1-.63.13,4,4,0,0,1-.72.26,2.76,2.76,0,0,1-.59.13c-.13,0-.37,0-.72.07s-.73.08-1.12.1-.76,0-1.09.1l-.62.06h-3.56l-.95-.06c-.51,0-1-.08-1.61-.1s-1.1-.06-1.58-.1l-.86-.07H378.4a2.12,2.12,0,0,0,.17.56,2.05,2.05,0,0,1,.16.56,9.41,9.41,0,0,1,.53,1,9.41,9.41,0,0,0,.53,1,4,4,0,0,0,.42.66,1.26,1.26,0,0,1,.3.53,4,4,0,0,1,.59.52c.26.27.55.55.86.86s.6.59.88.85a6.2,6.2,0,0,0,.63.53c0,.09.14.22.43.39l.62.4,1.06.52a6.66,6.66,0,0,0,1.05.47,2.16,2.16,0,0,1,.46.16,1.7,1.7,0,0,0,.53.16,4.69,4.69,0,0,0,1.18.23,3,3,0,0,1,1.05.24H392a2.1,2.1,0,0,1,.72-.24,2.07,2.07,0,0,0,.73-.23l.32-.32V71.4c0-.13.09-.28.14-.46a3,3,0,0,1,.13-.36,1.57,1.57,0,0,1,.13-.29.22.22,0,0,0,.06-.14.27.27,0,0,1,.07-.19,2.85,2.85,0,0,0,.13-.33l1.78-1.78a2.87,2.87,0,0,1,.69-.39l.82-.4h.59c.09.09.24.22.46.4s.33.3.33.39a2.61,2.61,0,0,1,.17.79,3.41,3.41,0,0,0,.23,1v2.43a3.24,3.24,0,0,0-.23.92,5.9,5.9,0,0,1-.17.86,1.42,1.42,0,0,1-.13.36c-.09.2-.18.41-.29.63a6,6,0,0,1-.37.65,2.6,2.6,0,0,1-.32.46,4.42,4.42,0,0,1-.33.63c-.18.29-.29.43-.33.43l-.5.49-.75.76-.76.75a3.94,3.94,0,0,1-.56.5q0,.14-.39.39l-.6.4-.69.33-.69.32a3.07,3.07,0,0,0-1,.33,4.16,4.16,0,0,0-.82.46.76.76,0,0,0-.37.17.67.67,0,0,1-.36.16c0,.27,0,.73,0,1.39s-.06,1.37-.1,2.13-.1,1.49-.16,2.17-.13,1.16-.17,1.42a6.58,6.58,0,0,1-.1.85,3.24,3.24,0,0,1-.23.93,1,1,0,0,1-.13.32,1.15,1.15,0,0,0-.13.33,2.49,2.49,0,0,1-.26-.85,5.67,5.67,0,0,1-.14-.92c0-.27,0-.69-.06-1.29s-.08-1.22-.1-1.9-.06-1.32-.1-1.91S388.08,83.73,388.08,83.51ZM378,60.55l.59,0,1,.07,1,.06c.33,0,.56,0,.69,0l.53.13.46.13a9.81,9.81,0,0,0,1.54.26c.73.09,1.2.13,1.42.13h8.16l1.31-.39a8.63,8.63,0,0,0-.79-.86c-.44-.43-.77-.74-1-.92a2.64,2.64,0,0,0-.39-.26c-.22-.13-.48-.27-.79-.43l-.89-.43a4.51,4.51,0,0,0-.69-.26,1.67,1.67,0,0,1-.36-.1l-.66-.23-.66-.23a1.81,1.81,0,0,0-.42-.1l-1-.33a4.37,4.37,0,0,0-.79-.19H381l-.72.46a1.89,1.89,0,0,1-.73.33l-.19.19a.19.19,0,0,0-.07.14s0,.06-.07.06a2.87,2.87,0,0,0-.39.69,2.7,2.7,0,0,1-.4.69,3.24,3.24,0,0,0-.16.53c-.07.26-.14.42-.23.46Z"/><path class="cls-1" d="M410,81.87a5,5,0,0,1-.69-.1l-1-.23c-.33-.09-.65-.17-1-.23a3.4,3.4,0,0,0-.59-.1,2.23,2.23,0,0,1-.56-.17,2,2,0,0,0-.56-.16l-.72-.46a1.77,1.77,0,0,0-.73-.33,5.37,5.37,0,0,1-.52-.33,2.59,2.59,0,0,1-.46-.33,3.36,3.36,0,0,0-.69-.76c-.38-.32-.65-.58-.83-.75a.93.93,0,0,1-.32-.4,1.25,1.25,0,0,1-.27-.65,2.05,2.05,0,0,1-.29-.46,7.3,7.3,0,0,0-.37-.66,4.68,4.68,0,0,1-.32-.63,1.52,1.52,0,0,0-.2-.36,7.12,7.12,0,0,0-.13-.86,5.38,5.38,0,0,1-.14-.92V71.21a6,6,0,0,1,.14-.86,6.41,6.41,0,0,0,.13-.92,2.32,2.32,0,0,0,.23-.62,2.74,2.74,0,0,1,.16-.56c.09-.14.28-.47.56-1s.47-.89.56-1a5.41,5.41,0,0,1,.33-.56c.17-.29.28-.43.33-.43a4.42,4.42,0,0,1,.49-.56c.24-.24.5-.49.76-.76s.51-.5.76-.72l.56-.53a1.93,1.93,0,0,1,.65-.62,2,2,0,0,1,.66-.36,1.06,1.06,0,0,1,.46-.33l.86-.43.88-.43a4.23,4.23,0,0,0,.63-.33,2.4,2.4,0,0,0,.56-.13,2.26,2.26,0,0,1,.62-.13,2.18,2.18,0,0,1,.37-.13,1.35,1.35,0,0,0,.42-.2,2.86,2.86,0,0,1,.53-.2h5.33l.39.07.73.13a5,5,0,0,1,.69.17,3.47,3.47,0,0,1,.43.16,2.5,2.5,0,0,0,.52-.1l.46-.1V49.23a7.47,7.47,0,0,1,.17-1.08,6.85,6.85,0,0,0,.16-1.22c.09-.13.22-.36.4-.69a1.42,1.42,0,0,1,.39-.56,2.89,2.89,0,0,1,.79-.92c.48-.44.81-.73,1-.86,0-.09.1-.17.29-.26a.85.85,0,0,0,.37-.26,4.26,4.26,0,0,0,.65-.14,3.27,3.27,0,0,0,.46-.13,2.35,2.35,0,0,1,.37.1c.19.07.29.12.29.17,0,.43,0,1.24.07,2.4s.08,2.39.1,3.68,0,2.52.1,3.69.06,2,.06,2.4a11.51,11.51,0,0,1,.13,1.15c.05.55.08,1.12.1,1.71s.06,1.15.1,1.68a8.16,8.16,0,0,0,.13,1,11.18,11.18,0,0,0,.1,1.19c.07.57.14,1.2.23,1.9s.17,1.37.23,2,.12,1.11.17,1.41a7.59,7.59,0,0,0,.13,1.19,9.08,9.08,0,0,1,.13.92c0,.09.11.26.33.53a6.92,6.92,0,0,0,.46.52,1.7,1.7,0,0,0,.16.53,2.57,2.57,0,0,1,.17.46c0,.26.12.67.23,1.22a7,7,0,0,1,.16,1.08v2.77a1.75,1.75,0,0,1-.16.52c-.11.27-.19.44-.23.53s-.11.26-.33.52a2.19,2.19,0,0,1-.46.47c0,.17-.16.4-.46.69l-.53.49-.46.33a6.11,6.11,0,0,1-.66.46,1,1,0,0,0-.33.16,1,1,0,0,1-.33.17h-.78a1,1,0,0,1-.33-.13,1.17,1.17,0,0,1-.27-.2,1.2,1.2,0,0,1-.23-.53c-.06-.26-.12-.48-.16-.66a4.27,4.27,0,0,0-.17-.69,3.44,3.44,0,0,1-.16-.69,3.49,3.49,0,0,1-.17-.65c-.06-.36-.14-.73-.23-1.12s-.16-.77-.23-1.12a3.39,3.39,0,0,0-.16-.66,1.15,1.15,0,0,0-.13-.33,1,1,0,0,1-.13-.33,2.75,2.75,0,0,0-.56.63c-.29.37-.5.58-.63.62-.17.27-.42.63-.72,1.09s-.51.69-.59.69-.22.24-.4.46-.31.33-.39.33a2.74,2.74,0,0,1-.66.52,5.1,5.1,0,0,1-.79.47c-.09.08-.26.24-.53.46a1.47,1.47,0,0,1-.46.32l-.52.27-.83.43c-.28.15-.54.3-.79.46a1.14,1.14,0,0,0-.42.36,1.79,1.79,0,0,0-.13.52,7.26,7.26,0,0,0-.1.86c0,.31-.05.59-.07.86s0,.43,0,.52a1.18,1.18,0,0,1-.13.4,1,1,0,0,0-.14.39,2,2,0,0,1-.26-.39,1,1,0,0,1-.13-.4,5.46,5.46,0,0,1-.33-1,5.88,5.88,0,0,1-.2-1v8.29h-.33a.68.68,0,0,1-.26-.07s-.1-.11-.16-.33a1.73,1.73,0,0,1-.1-.46,4.4,4.4,0,0,1-.27-1,9.9,9.9,0,0,1-.13-1c0-.22,0-.59-.06-1.09s-.08-1-.1-1.61-.06-1.1-.1-1.58S410,82.08,410,81.87Zm-4.73-11.32c.08.13.27.47.56,1a4.9,4.9,0,0,0,.62,1,6.42,6.42,0,0,0,.92,1c.53.53.92.9,1.19,1.12a3.78,3.78,0,0,1,.59.26,3.27,3.27,0,0,0,.85.33,2.24,2.24,0,0,0,.53.33,2.29,2.29,0,0,0,.46.2h3.55a2.24,2.24,0,0,0,.69-.33l.83-.46c.08-.09.21-.21.36-.36s.23-.28.23-.36a5.34,5.34,0,0,0,.3-.47,9,9,0,0,0,.42-.82c.13-.28.27-.58.4-.89a4.17,4.17,0,0,1,.33-.65,1.7,1.7,0,0,1,.16-.53,2.57,2.57,0,0,0,.17-.46c0-.18.12-.43.23-.76s.19-.63.26-.92.13-.55.2-.79a3.74,3.74,0,0,0,.1-.43c0-.13,0-.4,0-.82s0-.67,0-.75-.48,0-1.05-.1-.95-.1-1.12-.1a2.66,2.66,0,0,1-.53-.13,6.24,6.24,0,0,0-.88-.23l-.93-.2a3.49,3.49,0,0,0-.49-.1,5,5,0,0,1-.69-.1,6.22,6.22,0,0,0-.82-.1,5.8,5.8,0,0,0-.73.1,4.27,4.27,0,0,1-.72.1,3,3,0,0,1-.1.46,1.15,1.15,0,0,1-.23.53h-.26a1.87,1.87,0,0,1-.27-.36,1,1,0,0,1-.13-.37l-.19-.19a.19.19,0,0,0-.14-.07,2.5,2.5,0,0,1-.52-.1,3.31,3.31,0,0,0-.66-.1,2.66,2.66,0,0,0-.56.1,2.14,2.14,0,0,1-.49.1,1.93,1.93,0,0,0-.59.23,4.86,4.86,0,0,0-.73.43c-.09,0-.22.09-.39.26a1.68,1.68,0,0,1-.4.33,5,5,0,0,0-.2.46.89.89,0,0,1-.19.33v3.29Z"/><path class="cls-1" d="M442.55,100.75a2.39,2.39,0,0,1,.27-.33.19.19,0,0,0,.06-.13.24.24,0,0,1,.07-.2,2.85,2.85,0,0,0,.13-.33.62.62,0,0,1,.06-.26.46.46,0,0,1,0-.2.31.31,0,0,0,0-.13l-.13-.53a7.64,7.64,0,0,0,0-1.48c-.07-.68-.13-1.41-.2-2.2s-.13-1.53-.2-2.2a7,7,0,0,1,0-1.49c0-.08,0-.27,0-.55a9.46,9.46,0,0,1,0-1q0-.53,0-1c0-.3,0-.5,0-.59a12.54,12.54,0,0,1-.27-1.94c-.08-1-.16-2-.23-3.19s-.13-2.21-.19-3.22-.1-1.65-.1-1.91v-.4A5.36,5.36,0,0,0,441,78l-.89.63-.86.62a4.8,4.8,0,0,0-.52.43c-.49.17-.87.32-1.16.43l-.82.33a2,2,0,0,0-.46.23l-.52.26a2.27,2.27,0,0,1-.14.53l-.13.39a.38.38,0,0,1-.26.07.21.21,0,0,1-.13-.07c0,.09-.06.16-.17.23s-.16.14-.16.23a3.69,3.69,0,0,0-.4,1.12c-.13.57-.26,1.17-.39,1.81s-.26,1.24-.4,1.81-.22,1-.26,1.18L432.75,90l-.4,1a3,3,0,0,1-.39.79,4.06,4.06,0,0,1-.39,1l1.84-12.5c-.05,0-.13-.09-.27-.26a1.1,1.1,0,0,0-.32-.33c-.09-.09-.25-.26-.47-.53s-.43-.53-.65-.82-.42-.56-.6-.82-.28-.44-.32-.53a3.77,3.77,0,0,0-.33-.85,7.23,7.23,0,0,0-.6-1.12c.09-.13.07-.41-.06-.82a2.24,2.24,0,0,0-.33-.76,7.46,7.46,0,0,0-.13-1,6.81,6.81,0,0,1-.13-1,7.88,7.88,0,0,1-.2-.78c-.09-.4-.18-.83-.26-1.29s-.17-.89-.23-1.28a5.45,5.45,0,0,1-.1-.86,4.52,4.52,0,0,0-.07-.49c0-.24-.09-.5-.13-.79s-.09-.55-.13-.79a2.73,2.73,0,0,1-.07-.49,1.1,1.1,0,0,0,0-.59c-.07-.22-.06-.35,0-.4a6.74,6.74,0,0,1-.33-.82c-.13-.37-.22-.6-.26-.69a5.47,5.47,0,0,1,.13-.86,5.21,5.21,0,0,0,.13-.92v-.43a3.57,3.57,0,0,1,.07-.62,5,5,0,0,1,.06-.73c.09,0,.27-.14.53-.42a8,8,0,0,0,.53-.63l.69-.66a4,4,0,0,1,.82-.65c0-.09.23-.18.56-.27a1,1,0,0,1,.69,0,2.68,2.68,0,0,1,.56-.33,1.74,1.74,0,0,1,.56-.19.89.89,0,0,1,.33.19l.33.33.33.4a4.24,4.24,0,0,0,.06.52c0,.27,0,.44-.06.53a5.79,5.79,0,0,1,.13.76,10.65,10.65,0,0,1,.06,1.15v1.64c0,.09,0,.28.07.56s.08.58.1.89,0,.59.06.86,0,.41,0,.46a6.18,6.18,0,0,1,.13.62c0,.29.07.56.1.82a5,5,0,0,0,.1.73,3.75,3.75,0,0,1,.06.39,2.84,2.84,0,0,0,.1.56c.07.29.13.58.2.89s.13.59.19.86a2.73,2.73,0,0,1,.1.46c.05.22.11.49.2.82s.19.67.3,1a9.14,9.14,0,0,1,.26,1c.07.3.12.52.16.65a1.9,1.9,0,0,0,.4.53,2.85,2.85,0,0,0,.33.39q.19.21.33.33a1.53,1.53,0,0,1,.26.4,1.11,1.11,0,0,1,.13.52h.33a.89.89,0,0,0,.3-.06.87.87,0,0,1,.29-.07,3.53,3.53,0,0,1,.1-.39l.26-.79c.11-.31.22-.6.33-.89a4.48,4.48,0,0,1,.37-.76c.17-.08.29-.37.36-.85a2.47,2.47,0,0,1,.23-.92,3.19,3.19,0,0,0,.16-.46c.07-.22.14-.44.23-.66s.17-.43.23-.63a1.41,1.41,0,0,0,.1-.36c.05-.17.11-.43.2-.75s.19-.66.3-1,.23-.76.36-1.28a4.1,4.1,0,0,1,.19-.66,2.35,2.35,0,0,0,.17-.59,1.7,1.7,0,0,1,.16-.53,9.26,9.26,0,0,1,.14-1.32c.08-.57.13-.9.13-1s0-.68,0-1.65,0-2,0-3.12,0-2.15,0-3.1,0-1.48,0-1.61c.09-.61.17-1.13.26-1.54s.19-.84.3-1.25.21-.76.29-1c0-.09,0-.31.07-.66s.1-.73.16-1.12.14-.78.2-1.15a4.85,4.85,0,0,0,.1-.76s.15-.17.33-.53.28-.57.33-.65a3.62,3.62,0,0,0,.56-.3l.69-.46c.22-.15.43-.31.62-.46a.94.94,0,0,1,.43-.23q.06-.14.66-.33a3.33,3.33,0,0,1,.79-.2h.33l.13.13a.17.17,0,0,0,.13.07c.09,0,.23.1.43.3s.29.34.29.42a6.28,6.28,0,0,0-.06.79V43a1.88,1.88,0,0,0,.06.53c0,.17,0,.38,0,.62s0,.5,0,.76a6.24,6.24,0,0,0-.07,1c0,.22,0,.76-.1,1.64s-.15,1.94-.26,3.19-.23,2.58-.36,4-.25,2.72-.36,4-.2,2.29-.27,3.19-.09,1.44-.09,1.61,0,.44,0,.92-.05,1-.1,1.65-.07,1.22-.09,1.81a7.68,7.68,0,0,0,0,1.41,3.43,3.43,0,0,0-.17,1.19c0,.61,0,1.28,0,2v2.11a6.74,6.74,0,0,1-.13,1.55,4.46,4.46,0,0,1,.13.75c0,.38.08.76.1,1.15s0,.78.07,1.16,0,.62,0,.75a12,12,0,0,1,.13,1.48c0,.81.08,1.68.1,2.6s.05,1.78.1,2.57a9.54,9.54,0,0,0,.13,1.44,5.11,5.11,0,0,1,.13.83c0,.41.1.86.16,1.35s.14.93.2,1.34a2.43,2.43,0,0,0,.23.83,1.74,1.74,0,0,0-.06,1c0,.51.1,1,.16,1.61s.14,1.1.23,1.58a6.57,6.57,0,0,1,.13.92,4.69,4.69,0,0,1-.1.56,4.86,4.86,0,0,0-.09.63c0,.13-.1.3-.17.52a2.42,2.42,0,0,0-.1.46,3.12,3.12,0,0,1-.23.7,1.32,1.32,0,0,1-.49.69,4.91,4.91,0,0,1-.43.33l-.69.42-.72.43a3,3,0,0,0-.4.26,2.93,2.93,0,0,0-.66.2,3.08,3.08,0,0,1-.65.2h-.47a1.39,1.39,0,0,1-.32,0,.84.84,0,0,0-.27,0,2.71,2.71,0,0,1-.66-.1,2.89,2.89,0,0,0-.52-.09l-.33-.33v-.86A1.3,1.3,0,0,1,442.55,100.75Z"/></svg>