<svg id="Layer_1" data-name="Layer 1" xmlns="http://www.w3.org/2000/svg" viewBox="0 0 476 462"><defs><style>.cls-1{fill:#bb331b;}</style></defs><path class="cls-1" d="M124,412c-3.21-.47-6.47-.71-9.62-1.45-4-.95-8.4-1.6-11.91-3.61-9.76-5.61-16.31-13.84-17.68-25.45-1.17-9.89,2.32-18.51,7.58-26.55A69.55,69.55,0,0,1,106,339.56c.53-.45,1.14-.8,1.81-1.26-.64-4.06-.86-8.26.84-12.21a29.08,29.08,0,0,1,3.89-6.7c5.56-7,11.33-13.75,17-20.63q10.89-13.2,21.73-26.44,12.26-14.91,24.5-29.82Q190,225.25,204.19,208q16-19.42,31.92-38.87c.11-.13.26-.23.56-.5,11.7,26.6,30.82,45.77,57.59,57.52-3.2,2.63-6.23,5.14-9.27,7.65l-26.68,22q-14.3,11.76-28.6,23.52Q217.19,289.64,204.66,300q-13.14,10.81-26.3,21.61l-27,22.2c-3.14,2.59-6.18,5.32-9.44,7.74-5.58,4.15-11.86,5-18.52,3.36a2.11,2.11,0,0,0-2.59.78c-2.06,2.37-4.54,4.37-6.56,6.76-3.52,4.13-6.6,8.53-7.63,14.06a8.64,8.64,0,0,0,1.22,6.17c2.31,3.94,6,5.41,10.31,6.27,14.71,3,27.78-1.09,40-8.94,9.1-5.83,17.17-13,25.31-20,11.59-10.06,23.1-20.25,36.56-27.87,10.3-5.84,21.18-9.89,33-11.2a92.27,92.27,0,0,1,21.59.37c22.2,2.75,41.74,12,59.84,24.63a203.92,203.92,0,0,1,36.08,32.61c3.53,4,6.88,8.21,10.07,12.5a11,11,0,0,1-17.6,13.1,193.17,193.17,0,0,0-26.38-28.37c-13.42-11.84-28.08-21.74-45.05-27.89a90.2,90.2,0,0,0-27.88-5.49c-12.66-.42-24.13,3.44-34.82,9.93-9,5.49-17.11,12.25-25.08,19.14-11.48,9.94-22.66,20.26-35.68,28.26a82,82,0,0,1-29.62,11.51c-2.17.37-4.37.53-6.56.79Z"/><path class="cls-1" d="M314.74,69c2.58.33,5.17.64,7.75,1A75.28,75.28,0,0,1,350,79.78c20.2,11.87,34.14,28.81,40.78,51.39,4.19,14.24,4.22,28.55-.86,42.64-1.25,3.46-3.12,6.7-4.66,10.07a1.63,1.63,0,0,1-2.1,1A136.85,136.85,0,0,1,345,171.31a130.92,130.92,0,0,1-65.94-86.57c-.42-1.8-.81-3.62-1.05-5.45a2,2,0,0,1,.74-1.58,59.58,59.58,0,0,1,26.78-8.39,17.4,17.4,0,0,0,1.87-.32Z"/><path class="cls-1" d="M366.1,203.35a56.21,56.21,0,0,1-19.66,7.72c-23.08,4.26-43.62-1.93-62-15.82-15.2-11.47-25.76-26.37-31-44.75-4.77-16.59-4.26-32.92,3.25-48.73.82-1.72,1.8-3.36,2.78-5.18C276.21,151.09,311.75,186.52,366.1,203.35Z"/></svg>